<svg xmlns="http://www.w3.org/2000/svg" xmlns:xlink="http://www.w3.org/1999/xlink" version="1.1" viewBox="0 0 1000 500" enable-background="new 0 0 1000 500" display="none" xml:space="preserve">
<!-- PHP 7 logo by Peter Cowburn and Vincent Pontier -->
<g display="inline"><path fill="#383838" d="M214.16 163.68c29.03 0 50.3 7.8 63.82 22.53 13.51 14.73 18.39 34.9 14.65 60.4 -1.53 11.66-5 23.11-10.39 34.32 -5.39 11.21-13.03 21.34-22.92 30.35 -12.09 11.43-25.08 18.7-38.99 21.77 -13.91 3.08-28.38 4.62-43.4 4.62h-44.35l-12.22 63H68.98l46.13-237H214.16zM159.15 201.48l-19.3 98.93c1.68 0.22 8.19 0.33 9.92 0.33 23.61 0.22 44.01 0.17 58.91-6.43 16.11-7.13 26.29-20.38 30.91-47.86 3.76-23.08-1.27-35.52-14.39-40.61 -5.84-2.26-11.88-3.4-19.25-4.23 -8.89-1-20.1-0.25-30.9-0.14C172.28 201.7 159.15 201.48 159.15 201.48z"/><path fill="#383838" d="M390.68 100.68l-12.29 63h45.83c25.05 1 43.92 5.16 56.62 13.95 12.7 8.8 16.77 25.56 12.21 50.18l-21.43 109.87h-51.74l20.46-104.87c2.14-10.99 1.2-18.8-2.82-23.42 -4.03-4.62-12.44-7.38-25.5-7.38l-40.94-0.58 -26.6 136.25h-51l46.2-237H390.68z"/><path fill="#383838" d="M627.16 163.68c29.03 0 50.3 7.8 63.82 22.53 13.51 14.73 18.39 34.9 14.65 60.4 -1.53 11.66-5 23.11-10.39 34.32 -5.39 11.21-13.03 21.34-22.92 30.35 -12.09 11.43-25.08 18.7-38.99 21.77 -13.91 3.08-28.38 4.62-43.41 4.62h-44.35l-12.22 63h-51.37l46.13-237H627.16zM572.15 201.48l-19.3 98.93c1.68 0.22 8.19 0.33 9.92 0.33 23.61 0.22 44.01 0.17 58.91-6.43 16.11-7.13 26.29-20.38 30.91-47.86 3.76-23.08-1.27-35.52-14.39-40.61 -5.84-2.26-11.88-3.4-19.25-4.23 -8.89-1-20.1-0.25-30.9-0.14C585.28 201.7 572.15 201.48 572.15 201.48z"/><path fill="#383838" d="M719.69 141.68l0.04-41h211.61v41.03L788.48 337.68h-64l148.14-196H719.69z"/></g></svg>